<svg viewBox="0 0 400 400" xmlns="http://www.w3.org/2000/svg"><rect fill="#dde1ea" height="400" rx="100" width="400"/><g fill="#927ae8"><path d="m249.47 171.92c-.03 11.66 8.56 20.36 20.18 20.45 11.79.1 20.23-8.32 20.26-20.18.03-12.09-7.98-20.24-19.97-20.33-11.9-.09-20.45 8.28-20.47 20.06z"/><path d="m311.84 317.26c-15.12-13.59-27.02-31.09-31.6-55.61-3.91-20.95 6.19-35.04 21.52-28.37 8.91 3.88 16.72 12.34 26 19.49-6.43-21.56-17.83-34.79-33.14-42.42-3.95-1.97-8.33-2.85-12.56-3.28-34.39-3.5-55.11-31.51-70.15-69.97-3.62-9.27-2.3-14.84 5.86-16.71 6.79-1.56 13.51-3.74 20.26-5.59 19.25-5.25 28.64-15.61 31.82-38.51-3.44 3.67-6.64 7.03-7.33 7.55-13.7 10.43-28.96 10.47-28.96 10.47s13.32-3.49 25.13-13.32 12.42-22.46 12.42-22.46c-14.54 6.06-29.15 9.91-42.23 18.15-17.46 11-27.9 50.3-19.8 77.76 6.83 23.13 17.53 44.21 26.61 66.12 3.67 8.85 8.23 17.16 11.13 26.43 1.42 4.54 1.51 12.76-.59 15.62-2.55 3.47-8.26 4.82-12.21 3.93-7.06-1.59-13.73-6.02-20.73-8.38-6.77-2.29-11.93 2.05-11.2 11.36 2.06 26.07 10.11 49.37 22.03 70.99-.51-6.8-.81-13.64-1.58-20.38-2.9-25.77 7.41-38.03 25.4-28.25 10.86 5.91 20.89 14.85 30.91 23.23 16.59 13.88 33.08 27.7 53.75 26.29 2.53-.17 5.05-.65 9.06-1.19-10.85-8.27-20.74-14.79-29.81-22.94z"/><path d="m150.53 171.92c.03 11.66-8.56 20.36-20.18 20.45-11.79.1-20.23-8.32-20.26-20.18-.03-12.09 7.98-20.24 19.97-20.33 11.9-.09 20.45 8.28 20.47 20.06z"/><path d="m88.16 317.26c15.12-13.59 27.02-31.09 31.6-55.61 3.91-20.95-6.19-35.04-21.52-28.37-8.91 3.88-16.72 12.34-26 19.49 6.43-21.56 17.83-34.79 33.14-42.42 3.95-1.97 8.33-2.85 12.56-3.28 34.39-3.5 55.11-31.51 70.15-69.97 3.62-9.27 2.3-14.84-5.86-16.71-6.79-1.56-13.51-3.74-20.26-5.59-19.25-5.25-28.64-15.61-31.82-38.51 3.44 3.67 6.64 7.03 7.33 7.55 13.7 10.43 28.96 10.47 28.96 10.47s-13.32-3.49-25.13-13.32-12.42-22.46-12.42-22.46c14.54 6.06 29.15 9.91 42.23 18.15 17.46 11 27.9 50.3 19.8 77.76-6.83 23.13-17.53 44.21-26.61 66.12-3.67 8.85-8.23 17.16-11.13 26.43-1.42 4.54-1.51 12.76.59 15.62 2.55 3.47 8.26 4.82 12.21 3.93 7.06-1.59 13.73-6.02 20.73-8.38 6.77-2.29 11.93 2.05 11.2 11.36-2.06 26.07-10.11 49.37-22.03 70.99.51-6.8.81-13.64 1.58-20.38 2.9-25.77-7.41-38.03-25.4-28.25-10.86 5.91-20.89 14.85-30.91 23.23-16.59 13.88-33.08 27.7-53.75 26.29-2.53-.17-5.05-.65-9.06-1.19 10.85-8.27 20.74-14.79 29.81-22.94z"/></g></svg>